<?xml version="1.0" encoding="UTF-8"?>
<svg id="Capa_1" data-name="Capa 1" xmlns="http://www.w3.org/2000/svg" viewBox="0 0 1579 500">
  <defs>
    <style>
      .cls-1 {
        font-family: AvenirLTStd-HeavyOblique, 'Avenir LT Std';
        font-size: 79.76px;
        font-style: oblique;
        font-weight: 800;
      }

      .cls-2 {
        letter-spacing: 0em;
      }

      .cls-3 {
        stroke: #000;
        stroke-miterlimit: 10;
      }

      .cls-4 {
        fill: red;
      }

      .cls-4, .cls-5, .cls-6 {
        stroke-width: 0px;
      }

      .cls-5 {
        fill: #fff;
      }

      .cls-7 {
        letter-spacing: 0em;
      }

      .cls-8 {
        font-family: PaytoneOne-Regular, 'Paytone One';
        font-size: 316.12px;
      }

      .cls-6 {
        fill: #ff4d4d;
      }

      .cls-9 {
        letter-spacing: 0em;
      }
    </style>
  </defs>
  <text class="cls-8" transform="translate(430.63 321.8)"><tspan class="cls-9" x="0" y="0">M</tspan><tspan x="272.18" y="0">a</tspan><tspan class="cls-7" x="491.88" y="0">n</tspan><tspan class="cls-2" x="707.46" y="0">ya</tspan></text>
  <path class="cls-6" d="m66.4,162.93c.5-7.51,2.48-18.23,10-27,12.51-14.58,32.31-14.32,61.6-14.93,89.28-1.84,133.93-2.75,138-3,19.51-1.18,36.42-2.85,52,8,13.97,9.73,20.11,24.82,23,35,3.84,22.75,11.79,70.08,22,133,11.26,69.36,17.52,111.05-3,137-16.95,21.43-40,30-40,30-8.82,3.28-16.68,4.46-22.75,4.98-26.74,2.3-110.96-.2-224.25-6.98-3.27-.7-13.67-3.35-21.6-13.07-10.36-12.71-8.37-27.54-8-30,4.33-84.33,8.67-168.67,13-253Z"/>
  <path class="cls-3" d="m123.5,183.5c-.03-19.01.62-50.73,5-84,1.05-8.01,3.34-23.8,12-41,4.51-8.96,9.13-15.07,14-20,3.9-3.95,9.26-9.27,18-13,8.85-3.78,16.49-3.92,22-4,10.44-.15,18.79,2.13,24,4,4.1,2.01,10.06,5.43,16,11,6.13,5.74,20.54,21.55,25,80,1.34,17.59,2,41.91-1,71-5.33.33-10.67.67-16,1,3.77-35.86,1.06-64.72-2-84-7.36-46.34-19.69-55.73-25-59-9.72-5.98-23.24-8.23-35-4-15.31,5.51-22.26,20.06-27,30-6.05,12.68-7.4,23.74-8,29-3.84,33.75-5.35,66.51-6,87-5.33-1.33-10.67-2.67-16-4Z"/>
  <path class="cls-4" d="m43,171c-.12-2.32-.58-15.97,10-27,11.57-12.05,26.91-11.16,29-11,72.33,1,144.67,2,217,3,2.42-.07,16.68-.28,28,11,12.17,12.12,11.18,27.77,11,30,2.67,83,5.33,166,8,249,1.22,15.38-4.98,29.16-16,35-5.49,2.91-11.05,3.25-15,3l-255,3c-3.19-.62-13.89-3.12-22-13-10.43-12.7-8.37-27.6-8-30,4.33-84.33,8.67-168.67,13-253Z"/>
  <g>
    <path class="cls-5" d="m211.86,330.19c11.8-5.43,23.59-10.85,35.39-16.28.44-.18,2.33-.88,4.25,0,2.3,1.06,3.71,3.96,2.83,6.37-.67,1.84-2.39,2.64-2.83,2.83-18.52,9.06-32.27,15.37-35.39,16.28-.59.17-2.04.58-3.54,0-1.98-.76-2.71-2.54-2.83-2.83-.15-.37-.98-2.28,0-4.25.64-1.28,1.7-1.9,2.12-2.12Z"/>
    <path class="cls-5" d="m217.52,341.51l35.39-16.28c-.55,2.92-1.04,7.44,0,12.74.84,4.28,2.45,7.34,5.66,13.45,2.55,4.86,4.58,8.65,8.49,12.74,2.14,2.24,4.17,3.87,5.66,4.95-11.8,5.43-23.59,10.85-35.39,16.28.42-1.78.8-4.2.71-7.08-.11-3.26-.79-5.93-1.42-7.79-1.18-3.3-2.36-6.61-3.54-9.91-.77-2.79-2.59-7.93-7.08-12.74-3.04-3.27-6.24-5.23-8.49-6.37Z"/>
    <path class="cls-5" d="m117.01,413c-.09-2.22-.71-3.54.71-4.25,2.12-.71,2.83.71,5.52.25.9-.15,4.79-1.94,6.2-2.31.31-.08.6-.2.88-.35,34.6-17.37,65.73-32.67,100.36-50.07l9.48,3.64-1.42,4.95-86.35,48.13h-35.39Z"/>
    <path class="cls-5" d="m236.63,405.12v-.07c0-1.08.88-1.96,1.96-1.96h54.92c.42.03.96.14,1.32.54.59.65.18,1.5.54,2.29.27.57.97,1.17,2.83,1.42.16-.02,1.28-.13,2.12.71.54.54.67,1.17.71,1.42,0,.16,0,.4,0,.71.03,1.38.2,1.75,0,2.12-.15.28-.52.61-1.58.71h-67.23c-.7,0-1.26-.57-1.26-1.26v-1.6c0-1.22.86-2.27,2.05-2.51l1.49-.3c.86-.22,2.12-1.33,2.12-2.22Z"/>
    <path class="cls-5" d="m238.58,387.26c11.71-5.61,23.42-11.21,35.13-16.82.44-.18,2.32-.91,4.25-.07,2.32,1.02,3.77,3.9,2.93,6.33-.64,1.85-2.35,2.68-2.79,2.87-18.38,9.34-32.03,15.86-35.13,16.82-.59.18-2.03.61-3.54.05-1.99-.73-2.75-2.49-2.87-2.79-.15-.37-1.01-2.26-.07-4.25.62-1.29,1.67-1.93,2.09-2.16Z"/>
    <path class="cls-5" d="m121.26,403.13s0-.05,0-.07l-9.2-106.13c-.45-2.42.35-4.87,2.12-6.37,2.26-1.9,5.75-1.99,8.39-.07.07.05.13.11.18.17l26.88,32.93c.49.6,1.47.3,1.53-.47l9.72-113.86c0-.06.02-.12.03-.18.25-.8,2.13-6.18,7.76-7.7,4.07-1.1,8.45.26,11.27,3.48.03.04.07.08.09.13,21.27,33.67,42.55,67.33,63.82,101,.28.45.1,1.05-.39,1.26l-34.37,14.83c-.44.19-.95-.01-1.14-.45l-32.4-75.59c-.35-.81-1.54-.65-1.65.22-3.63,26.8-7.27,53.61-10.9,80.41-.86,6.68-1.72,13.36-2.58,20.04-.63,3.65-5.32,4.76-7.52,1.79l-20.75-28.01c-.51-.69-1.61-.3-1.56.56l4.5,86.37c.02.39-.22.74-.58.86l-7.52,2.59c-.06.02-.12.03-.17.04l-4.6.57c-.52.06-.97-.34-.97-.86v-7.47Z"/>
  </g>
  <text class="cls-1" transform="translate(491.86 454.95)"><tspan x="0" y="0">Gana más gastando menos</tspan></text>
</svg>